<svg width="45" height="45" viewBox="0 0 45 45" fill="none" xmlns="http://www.w3.org/2000/svg">
<path d="M41.0997 21.75C37.3122 12.9563 30.1872 7.5 22.4997 7.5C14.8122 7.5 7.6872 12.9563 3.8997 21.75C3.79645 21.9866 3.74316 22.2419 3.74316 22.5C3.74316 22.7581 3.79645 23.0134 3.8997 23.25C7.6872 32.0437 14.8122 37.5 22.4997 37.5C30.1872 37.5 37.3122 32.0437 41.0997 23.25C41.2029 23.0134 41.2562 22.7581 41.2562 22.5C41.2562 22.2419 41.2029 21.9866 41.0997 21.75ZM22.4997 33.75C16.5559 33.75 10.9309 29.4562 7.6872 22.5C10.9309 15.5437 16.5559 11.25 22.4997 11.25C28.4434 11.25 34.0684 15.5437 37.3122 22.5C34.0684 29.4562 28.4434 33.75 22.4997 33.75ZM22.4997 15C21.0163 15 19.5663 15.4399 18.3329 16.264C17.0996 17.0881 16.1383 18.2594 15.5706 19.6299C15.0029 21.0003 14.8544 22.5083 15.1438 23.9632C15.4332 25.418 16.1475 26.7544 17.1964 27.8033C18.2453 28.8522 19.5817 29.5665 21.0365 29.8559C22.4914 30.1453 23.9994 29.9968 25.3698 29.4291C26.7403 28.8614 27.9116 27.9001 28.7357 26.6668C29.5598 25.4334 29.9997 23.9834 29.9997 22.5C29.9997 20.5109 29.2095 18.6032 27.803 17.1967C26.3965 15.7902 24.4888 15 22.4997 15ZM22.4997 26.25C21.758 26.25 21.033 26.0301 20.4163 25.618C19.7996 25.206 19.319 24.6203 19.0352 23.9351C18.7513 23.2498 18.6771 22.4958 18.8218 21.7684C18.9664 21.041 19.3236 20.3728 19.848 19.8484C20.3725 19.3239 21.0407 18.9667 21.7681 18.8221C22.4955 18.6774 23.2495 18.7516 23.9348 19.0355C24.62 19.3193 25.2057 19.7999 25.6177 20.4166C26.0298 21.0333 26.2497 21.7583 26.2497 22.5C26.2497 23.4946 25.8546 24.4484 25.1513 25.1516C24.4481 25.8549 23.4943 26.25 22.4997 26.25Z" fill="#2EA19B"/>
</svg>
