<svg width="39" height="39" viewBox="0 0 39 39" fill="none" xmlns="http://www.w3.org/2000/svg">
<g clip-path="url(#clip0_210_560)">
<path d="M19.5 27.6815C15.0065 27.6815 11.3185 24.0359 11.3185 19.5C11.3185 15.0065 14.9641 11.3185 19.5 11.3185C23.9935 11.3185 27.6815 14.9641 27.6815 19.5C27.6815 23.9935 23.9935 27.6815 19.5 27.6815ZM19.5 14.3283C16.6598 14.3283 14.3283 16.6598 14.3283 19.5C14.3283 22.3402 16.6598 24.6717 19.5 24.6717C22.3402 24.6717 24.6717 22.3402 24.6717 19.5C24.6717 16.6598 22.3402 14.3283 19.5 14.3283ZM19.5 39H19.288C17.8043 39 16.5326 38.8304 16.4478 38.8304C15.7696 38.7457 15.2609 38.237 15.1337 37.5587L14.7098 34.5065C13.7772 34.2098 12.887 33.8283 12.0391 33.362L9.66522 35.1848C9.11413 35.6087 8.39348 35.5663 7.84239 35.1848C7.8 35.1424 6.78261 34.337 5.72283 33.3196L5.55326 33.15C4.49348 32.0902 3.73043 31.0728 3.68804 31.0304C3.26413 30.4793 3.26413 29.7587 3.68804 29.2076L5.55326 26.7489C5.08696 25.9011 4.74783 24.9685 4.45109 24.0359L1.4837 23.612C0.805435 23.5272 0.296739 22.9761 0.211957 22.2978C0.169565 22.2554 0 20.9837 0 19.5V19.288C0 17.8043 0.169565 16.5326 0.169565 16.4478C0.254348 15.7696 0.763043 15.2609 1.4413 15.1337L4.49348 14.7098C4.79022 13.7772 5.17174 12.887 5.63804 12.0391L3.81522 9.66522C3.3913 9.11413 3.4337 8.39348 3.81522 7.84239C3.85761 7.8 4.66304 6.78261 5.68043 5.72283L5.85 5.55326C6.90978 4.49348 7.92717 3.73043 7.96956 3.68804C8.52065 3.26413 9.2413 3.26413 9.79239 3.68804L12.2511 5.55326C13.0989 5.08696 14.0315 4.74783 14.9641 4.45109L15.388 1.4837C15.4728 0.805435 16.0239 0.296739 16.7022 0.211957C16.7446 0.169565 18.0163 0 19.5 0H19.712C21.1957 0 22.4674 0.169565 22.5522 0.169565C23.2304 0.254348 23.7391 0.763043 23.8663 1.4413L24.2902 4.49348C25.2228 4.79022 26.113 5.17174 26.9609 5.63804L29.3348 3.81522C29.8859 3.3913 30.6065 3.4337 31.1576 3.81522C31.2 3.85761 32.2174 4.66304 33.2772 5.68043L33.4467 5.85C34.5065 6.90978 35.2696 7.92717 35.312 7.96956C35.7359 8.52065 35.7359 9.2413 35.312 9.79239L33.4891 12.2511C33.9554 13.0989 34.2946 14.0315 34.5913 14.9641L37.5587 15.388C38.237 15.4728 38.7457 16.0239 38.8304 16.7022C38.8304 16.7446 39 18.0587 39 19.5424V19.7543C39 21.238 38.8304 22.5098 38.8304 22.5946C38.7457 23.2728 38.237 23.7815 37.5587 23.9087L34.5065 24.3326C34.2098 25.2652 33.8283 26.1554 33.362 27.0033L35.1848 29.4196C35.6087 29.9707 35.5663 30.6913 35.1848 31.2424C35.1424 31.2848 34.337 32.3022 33.3196 33.362L33.15 33.5315C32.0902 34.5913 31.0728 35.3543 31.0304 35.3967C30.4793 35.8207 29.7587 35.8207 29.2076 35.3967L26.7489 33.4891C25.9011 33.9554 24.9685 34.2946 24.0359 34.5913L23.612 37.5587C23.5272 38.237 22.9761 38.7457 22.2978 38.8304C22.2554 38.8304 20.9837 39 19.5 39ZM17.9739 35.9478C18.3554 35.9902 18.8217 35.9902 19.288 35.9902H19.5C19.9663 35.9902 20.4326 35.9902 20.8141 35.9478L21.1957 33.15C21.2804 32.5141 21.7467 32.0478 22.3402 31.8783C23.6543 31.5815 24.9261 31.0728 26.0707 30.3522C26.4098 30.1402 26.8337 30.0978 27.2152 30.1826C27.4272 30.225 27.6391 30.3522 27.8087 30.4793L30.0554 32.175C30.3522 31.9207 30.6913 31.6239 31.0304 31.2848L31.2 31.1152C31.5391 30.7761 31.8359 30.437 32.0902 30.1402L30.3946 27.8935C30.013 27.3848 30.013 26.7065 30.3098 26.1978C31.0304 25.0957 31.5391 23.8663 31.8359 22.5946C31.963 21.9587 32.4717 21.45 33.1076 21.3652L35.9478 20.9837C35.9902 20.6022 35.9902 20.1359 35.9902 19.6696V19.5C35.9902 19.0337 35.9902 18.5674 35.9478 18.1859L33.15 17.8043C32.5565 17.7196 32.0478 17.2533 31.8783 16.6598C31.5815 15.3457 31.0728 14.1163 30.3946 12.9717C30.3098 12.887 30.2674 12.7598 30.225 12.6326C30.0554 12.1663 30.1402 11.6152 30.437 11.2337L32.175 8.94456C31.9207 8.64783 31.6239 8.30869 31.2848 7.96956L31.1152 7.8C30.7761 7.46087 30.437 7.16413 30.1402 6.90978L27.8935 8.60543C27.3424 8.98696 26.6217 8.98696 26.113 8.60543C25.0109 7.92717 23.7815 7.41848 22.5098 7.07935C21.9163 6.95217 21.45 6.44348 21.3652 5.80761L20.9837 2.96739C20.6022 2.925 20.1359 2.925 19.6696 2.925H19.5C19.0337 2.925 18.5674 2.925 18.1859 2.96739L17.8043 5.85C17.7196 6.52826 17.2109 7.03696 16.5326 7.12174C15.2609 7.41848 14.0315 7.92717 12.9293 8.60543C12.5902 8.81739 12.1663 8.85978 11.7848 8.775C11.5728 8.73261 11.3609 8.60543 11.1913 8.47826L8.98696 6.78261C8.69022 7.03696 8.35109 7.3337 8.01196 7.67283L7.84239 7.84239C7.50326 8.18152 7.20652 8.52065 6.95217 8.81739L8.64783 11.0641C9.02935 11.5728 9.02935 12.2087 8.73261 12.7598C8.69022 12.8022 8.69022 12.8446 8.64783 12.887C7.96956 13.9891 7.46087 15.2185 7.16413 16.4902C7.03696 17.0837 6.52826 17.55 5.89239 17.6348L3.05217 18.0163C3.00978 18.3978 3.00978 18.8641 3.00978 19.3304V19.5C3.00978 19.9663 3.00978 20.4326 3.05217 20.8141L5.85 21.1957C6.52826 21.2804 7.03696 21.7891 7.12174 22.4674V22.5098C7.41848 23.7815 7.92717 24.9685 8.60543 26.0707C8.81739 26.4522 8.90217 26.9185 8.73261 27.3424C8.69022 27.512 8.56304 27.6815 8.43587 27.8511L6.78261 30.0554C7.03696 30.3522 7.3337 30.6913 7.67283 31.0304L7.84239 31.2C8.18152 31.5391 8.52065 31.8359 8.81739 32.0902L11.0641 30.3946C11.6152 29.9706 12.4207 30.013 12.9293 30.437C14.0315 31.1152 15.2185 31.5815 16.4478 31.9207C17.0413 32.0478 17.5076 32.5565 17.5924 33.1924L17.9739 35.9478Z" fill="#2EA19B"/>
</g>
<defs>
<clipPath id="clip0_210_560">
<rect width="39" height="39" fill="white"/>
</clipPath>
</defs>
</svg>
